# xmcd CD database file
#
# Track frame offsets:
#	150
#	31252
#	47930
#	66585
#	83792
#	101356
#	121733
#	148509
#	167217
#	195977
#
# Disc length: 3119 seconds
#
# Revision: 0
# Processed by: cddbd v1.5.2PL0 Copyright (c) Steve Scherf et al.
# Submitted via: CDex 1.51
#
DISCID=830c2d0a
DTITLE=Richard Thompson - In Concert 2007-06-22   (2|2)
DYEAR=2007
DGENRE=Blues
TTITLE0=Richard Thompson - Mingulay Boat Song
TTITLE1=Richard Thompson - A Man In Need
TTITLE2=Richard Thompson - Too Late To Come Fishing
TTITLE3=Richard Thompson - I Want To See The Bright Light
TTITLE4=Richard Thompson - Wall Of Death
TTITLE5=Richard Thompson - Read About Love
TTITLE6=Richard Thompson - Sunset Song
TTITLE7=Richard Thompson - Mr. Stupid
TTITLE8=Richard Thompson - Gypsy Love Songs
TTITLE9=Richard Thompson - Tear Stained Letter
EXTD=YEAR: 2007
EXTT0=
EXTT1=
EXTT2=
EXTT3=
EXTT4=
EXTT5=
EXTT6=
EXTT7=
EXTT8=
EXTT9=
PLAYORDER=
